# xmcd CD database file
#
# Track frame offsets:
#	150
#	8983
#	20611
#	32461
#	43211
#	53413
#	65630
#	78411
#	93898
#	112618
#	123725
#	145641
#	156439
#	187421
#	199500
#	209735
#	246850
#	258670
#	268743
#	282374
#	292677
#	302926
#	338699
#
# Disc length: 4700 seconds
#
# Revision: 2
# Processed by: cddbd v1.5.1PL2 Copyright (c) Steve Scherf et al.
# Submitted via: CDex 1.51
#
DISCID=53125a17
DTITLE=Nine Below Zero - Doing their Homework 1
DYEAR=2004
DGENRE=Blues
TTITLE0=Tore Down
TTITLE1=Straighten Her Out
TTITLE2=Homework
TTITLE3=Just A Little Bit
TTITLE4=Twenty Yards Behind
TTITLE5=I Can't Help Myself
TTITLE6=Rocket 88
TTITLE7=Can I Get A Witness
TTITLE8=Ridong On The L and N
TTITLE9=Stop Your Naggin'
TTITLE10=Stormy Monday Blues
TTITLE11=The Hoochie Coochie Coo
TTITLE12=I've Got My Mojo Working
TTITLE13=Is That You
TTITLE14=Pack Fair and Square
TTITLE15=Keep A Knockin'
TTITLE16=Watch Yourself
TTITLE17=Round And Round
TTITLE18=You Gotta Walk It Off
TTITLE19=Doghouse
TTITLE20=Three Times Enough
TTITLE21=I Can't Quit You Baby
TTITLE22=Rockin' Robin
EXTD=YEAR: 2004
EXTT0=
EXTT1=
EXTT2=
EXTT3=
EXTT4=
EXTT5=
EXTT6=
EXTT7=
EXTT8=
EXTT9=
EXTT10=
EXTT11=
EXTT12=
EXTT13=
EXTT14=
EXTT15=
EXTT16=
EXTT17=
EXTT18=
EXTT19=
EXTT20=
EXTT21=
EXTT22=
PLAYORDER=
